<svg id="Layer_1" data-name="Layer 1" xmlns="http://www.w3.org/2000/svg" viewBox="0 0 54.76 70.01"><defs><style>.cls-1{fill:white;}</style></defs><path class="cls-1" d="M45,12.4l1,1.06a1.12,1.12,0,0,1,0,1.6l-9.19,9.2a1.15,1.15,0,0,1-1.61,0L26,15.06a1.13,1.13,0,0,1,0-1.6l1.05-1.06a1.14,1.14,0,0,1,1.63,0l5.43,5.71V2.22a1.13,1.13,0,0,1,1.14-1.13H36.8a1.13,1.13,0,0,1,1.14,1.13V18.13l5.43-5.71a1.13,1.13,0,0,1,1.62,0Z" transform="translate(-8.76 -1.09)"/><path class="cls-1" d="M27.14,59.78l-1.05-1.05a1.13,1.13,0,0,1,0-1.61l9.19-9.2a1.15,1.15,0,0,1,1.61,0l9.2,9.2a1.15,1.15,0,0,1,0,1.61L45,59.78a1.14,1.14,0,0,1-1.63,0L38,54.05V70a1.13,1.13,0,0,1-1.13,1.13H35.33A1.13,1.13,0,0,1,34.19,70V54.05l-5.43,5.71a1.13,1.13,0,0,1-1.62,0Z" transform="translate(-8.76 -1.09)"/><rect class="cls-1" y="33.18" width="54.76" height="3.92" rx="1.01"/></svg>