<svg id="Layer_1" data-name="Layer 1" xmlns="http://www.w3.org/2000/svg" viewBox="0 0 54.94 54.76"><defs><style>.cls-1{fill:#231f20;}</style></defs><path class="cls-1" d="M35.76,45,34.7,46.09a1.13,1.13,0,0,1-1.6,0l-9.2-9.2a1.13,1.13,0,0,1,0-1.6l9.2-9.2a1.13,1.13,0,0,1,1.6,0l1.06,1.05a1.14,1.14,0,0,1,0,1.62L30,34.2h32.3a1.13,1.13,0,0,1,1.14,1.13v1.52A1.13,1.13,0,0,1,62.33,38H30l5.71,5.44a1.13,1.13,0,0,1,0,1.62Z" transform="translate(-8.53 -8.71)"/><rect class="cls-1" x="-16.89" y="34.13" width="54.76" height="3.92" rx="1.01" transform="translate(38.05 16.89) rotate(90)"/></svg>