<svg id="Layer_1" data-name="Layer 1" xmlns="http://www.w3.org/2000/svg" viewBox="0 0 54.94 54.76"><defs><style>.cls-1{fill:#231f20;}</style></defs><path class="cls-1" d="M36.24,27.14l1.06-1.05a1.13,1.13,0,0,1,1.6,0l9.2,9.2a1.13,1.13,0,0,1,0,1.6l-9.2,9.2a1.13,1.13,0,0,1-1.6,0L36.24,45a1.14,1.14,0,0,1,0-1.62L42,38H9.67a1.13,1.13,0,0,1-1.14-1.13V35.33A1.13,1.13,0,0,1,9.67,34.2H42l-5.71-5.44a1.13,1.13,0,0,1,0-1.62Z" transform="translate(-8.53 -8.71)"/><rect class="cls-1" x="34.13" y="34.13" width="54.76" height="3.92" rx="1.01" transform="translate(16.89 88.89) rotate(-90)"/></svg>