<svg id="Layer_1" data-name="Layer 1" xmlns="http://www.w3.org/2000/svg" viewBox="0 0 54.76 54.94"><defs><style>.cls-1{fill:white;}</style></defs><path class="cls-1" d="M45,36.33l1,1.06A1.13,1.13,0,0,1,46,39l-9.2,9.2a1.13,1.13,0,0,1-1.6,0L26,39a1.13,1.13,0,0,1,0-1.6l1.05-1.06a1.14,1.14,0,0,1,1.62,0l5.44,5.71V9.76a1.13,1.13,0,0,1,1.13-1.14h1.52a1.13,1.13,0,0,1,1.13,1.14v32.3l5.44-5.71a1.13,1.13,0,0,1,1.62,0Z" transform="translate(-8.62 -8.62)"/><rect class="cls-1" y="51.02" width="54.76" height="3.92" rx="1.01"/></svg>