<svg id="Layer_1" data-name="Layer 1" xmlns="http://www.w3.org/2000/svg" viewBox="0 0 54.76 54.94"><defs><style>.cls-1{fill:#231f20;}</style></defs><path class="cls-1" d="M27.05,35.85,26,34.8a1.15,1.15,0,0,1,0-1.61L35.2,24a1.13,1.13,0,0,1,1.6,0l9.2,9.2a1.15,1.15,0,0,1,0,1.61l-1,1.05a1.13,1.13,0,0,1-1.62,0l-5.44-5.71v32.3a1.13,1.13,0,0,1-1.13,1.14H35.24a1.13,1.13,0,0,1-1.13-1.14V30.12l-5.44,5.71a1.13,1.13,0,0,1-1.62,0Z" transform="translate(-8.62 -8.62)"/><rect class="cls-1" x="8.62" y="8.62" width="54.76" height="3.92" rx="1.01" transform="translate(63.38 12.54) rotate(-180)"/></svg>