<svg id="Layer_1" data-name="Layer 1" xmlns="http://www.w3.org/2000/svg" viewBox="0 0 70.01 54.76"><defs><style>.cls-1{fill:#231f20;}</style></defs><path class="cls-1" d="M59.82,45l-1,1a1.15,1.15,0,0,1-1.61,0L48,36.8a1.13,1.13,0,0,1,0-1.6l9.2-9.2a1.15,1.15,0,0,1,1.61,0l1,1.05a1.13,1.13,0,0,1,0,1.62l-5.7,5.44H70a1.13,1.13,0,0,1,1.14,1.13v1.52A1.13,1.13,0,0,1,70,37.89H54.1l5.7,5.44a1.13,1.13,0,0,1,0,1.62Z" transform="translate(-1.13 -8.71)"/><path class="cls-1" d="M12.45,27.1l1.05-1.05a1.12,1.12,0,0,1,1.6,0l9.2,9.19a1.12,1.12,0,0,1,0,1.6L15.1,46a1.12,1.12,0,0,1-1.6,0l-1.05-1a1.13,1.13,0,0,1,0-1.62l5.7-5.43H2.27A1.14,1.14,0,0,1,1.13,36.8V35.29a1.14,1.14,0,0,1,1.14-1.14h15.9l-5.7-5.43a1.12,1.12,0,0,1,0-1.62Z" transform="translate(-1.13 -8.71)"/><rect class="cls-1" x="8.62" y="34.13" width="54.76" height="3.92" rx="1.01" transform="translate(70.96 -8.62) rotate(90)"/></svg>