<svg xmlns="http://www.w3.org/2000/svg" viewBox="0 0 72 72"><defs><style>.cls-1{fill:#231f20;}.cls-2{fill:none;}</style></defs><g id="Layer_4" data-name="Layer 4"><path class="cls-1" d="M31,8.86A3.44,3.44,0,0,0,31,13.79L52.08,33.56a3.24,3.24,0,0,1,0,4.87L31,58.21A3.46,3.46,0,0,0,31,63.14l3.19,3.18a3.42,3.42,0,0,0,4.86,0l27.9-27.89a3.43,3.43,0,0,0,0-4.87L39,5.68a3.42,3.42,0,0,0-4.86,0Z" transform="translate(0 0)"/><rect class="cls-2" width="72" height="72" transform="translate(0 72) rotate(-90)"/></g></svg>