<svg xmlns="http://www.w3.org/2000/svg" viewBox="0 0 72 72"><defs><style>.cls-1{fill:#231f20;}.cls-2{fill:none;}</style></defs><g id="Layer_4" data-name="Layer 4"><path class="cls-1" d="M41,63.14A3.44,3.44,0,0,0,41,58.21L19.92,38.44a3.24,3.24,0,0,1,0-4.87L41,13.79A3.46,3.46,0,0,0,41,8.86L37.85,5.68a3.42,3.42,0,0,0-4.86,0L5.09,33.57a3.43,3.43,0,0,0,0,4.87L33,66.32a3.42,3.42,0,0,0,4.86,0Z" transform="translate(0 0)"/><rect class="cls-2" width="72" height="72" transform="matrix(0, 1, -1, 0, 72, 0)"/></g></svg>