<svg xmlns="http://www.w3.org/2000/svg" viewBox="0 0 72 72"><defs><style>.cls-1{fill:#231f20;}.cls-2{fill:none;}</style></defs><g id="Layer_4" data-name="Layer 4"><path class="cls-1" d="M8.86,41A3.44,3.44,0,0,0,13.79,41L33.56,19.92a3.24,3.24,0,0,1,4.87,0L58.21,41a3.46,3.46,0,0,0,4.93.06l3.18-3.19a3.42,3.42,0,0,0,0-4.86L38.43,5.09a3.43,3.43,0,0,0-4.87,0L5.68,33a3.42,3.42,0,0,0,0,4.86Z" transform="translate(0 0)"/><rect class="cls-2" width="72" height="72" transform="matrix(-1, 0, 0, -1, 72, 72)"/></g></svg>