<?xml version="1.0" standalone="no"?>
<!DOCTYPE svg PUBLIC "-//W3C//DTD SVG 20010904//EN"
 "http://www.w3.org/TR/2001/REC-SVG-20010904/DTD/svg10.dtd">
<svg version="1.0" xmlns="http://www.w3.org/2000/svg"
 width="128.000000pt" height="128.000000pt" viewBox="0 0 128.000000 128.000000"
 preserveAspectRatio="xMidYMid meet">
<metadata>
Created by potrace 1.14, written by Peter Selinger 2001-2017
</metadata>
<g transform="translate(0.000000,128.000000) scale(0.100000,-0.100000)"
fill="#000000" stroke="none">
<path d="M793 1150 c-109 -88 -209 -230 -345 -487 l-73 -138 -3 244 c-2 246
-8 285 -37 261 -10 -8 -14 -74 -17 -253 -3 -177 -9 -268 -23 -339 -10 -53 -15
-103 -12 -112 8 -19 50 -21 64 -3 5 6 41 91 79 187 69 176 162 352 234 445 22
28 80 90 130 140 49 49 90 93 90 97 0 19 -30 4 -87 -42z"/>
<path d="M810 965 c-67 -17 -129 -42 -152 -62 -40 -35 19 -58 72 -28 64 37 66
-2 6 -180 -121 -361 -123 -364 -194 -408 -32 -20 -65 -43 -72 -51 -10 -13 -17
-11 -51 16 -52 42 -117 49 -184 19 -57 -25 -56 -34 3 -19 79 20 147 -16 161
-84 9 -44 52 -52 82 -14 35 45 181 133 289 175 98 38 177 58 310 80 l55 9 -45
1 c-72 2 -269 -26 -340 -49 -36 -11 -68 -20 -72 -20 -16 0 -7 32 38 142 55
133 107 290 123 370 12 56 13 58 54 68 62 16 89 29 82 40 -9 14 -99 11 -165
-5z"/>
</g>
</svg>
