<?xml version="1.0" standalone="no"?>
<!DOCTYPE svg PUBLIC "-//W3C//DTD SVG 20010904//EN"
 "http://www.w3.org/TR/2001/REC-SVG-20010904/DTD/svg10.dtd">
<svg version="1.0" xmlns="http://www.w3.org/2000/svg"
 width="2000.000000pt" height="2000.000000pt" viewBox="0 0 2000.000000 2000.000000"
 preserveAspectRatio="xMidYMid meet">
<metadata>
Created by potrace 1.14, written by Peter Selinger 2001-2017
</metadata>
<g transform="translate(0.000000,2000.000000) scale(0.100000,-0.100000)"
fill="#000000" stroke="none">
<path d="M9650 19793 c-995 -43 -1890 -209 -2800 -518 -1218 -414 -2317 -1052
-3329 -1932 -188 -163 -711 -686 -874 -874 -848 -975 -1458 -2009 -1882 -3190
-528 -1468 -695 -3093 -479 -4664 239 -1741 949 -3397 2047 -4773 151 -189
350 -420 486 -565 51 -55 89 -102 85 -106 -5 -4 -56 -25 -114 -46 -448 -162
-967 -446 -1393 -763 -154 -114 -1217 -956 -1212 -960 2 -2 311 143 687 321
375 179 728 344 783 367 667 283 1280 430 1798 430 l148 0 152 -126 c423 -351
970 -727 1453 -999 l121 -68 50 -136 c57 -154 86 -249 103 -336 35 -184 116
-332 253 -461 92 -88 183 -143 307 -185 87 -30 105 -33 225 -33 150 -1 214 13
340 74 145 70 276 190 342 316 l26 51 141 -44 c562 -174 1179 -304 1774 -372
423 -49 551 -56 1132 -56 595 0 718 6 1180 61 2136 252 4152 1219 5689 2729
675 663 1228 1378 1676 2165 48 85 89 157 91 158 2 3 435 31 492 32 22 0 22 1
22 154 l0 154 -165 7 c-91 4 -165 9 -165 11 0 3 22 48 49 102 70 139 188 409
275 628 365 922 579 1859 663 2904 21 272 25 1105 5 1365 -69 907 -215 1654
-481 2455 -421 1265 -1073 2398 -1960 3405 -875 992 -1983 1827 -3151 2375
-96 45 -176 83 -178 85 -1 1 16 33 38 71 78 135 88 248 30 336 -67 101 -198
130 -397 89 -149 -31 -354 -102 -414 -144 l-50 -35 -182 60 c-849 277 -1709
434 -2622 478 -188 9 -643 11 -815 3z m730 -743 c667 -29 1271 -116 1878 -271
130 -34 247 -63 260 -66 12 -3 22 -8 21 -12 0 -3 -37 -35 -81 -71 -383 -306
-986 -874 -1408 -1325 -1139 -1218 -2161 -2651 -3257 -4565 -539 -941 -945
-1708 -1943 -3665 -383 -752 -740 -1446 -747 -1454 -2 -3 -11 3 -20 12 -13 13
-14 21 -6 39 22 45 53 1010 63 1978 6 514 15 1246 20 1625 6 380 13 1307 17
2060 5 1075 3 1388 -6 1455 -9 56 -12 168 -9 330 6 449 2 618 -17 725 -29 171
-79 307 -156 432 -23 38 -53 88 -66 113 -56 104 -166 180 -286 200 -30 5 -106
5 -169 1 -91 -7 -127 -14 -172 -34 -113 -52 -194 -167 -231 -327 -14 -61 -18
-134 -20 -390 -1 -173 -10 -450 -18 -615 -29 -546 -57 -1280 -79 -2075 -14
-531 -17 -2419 -4 -3205 6 -408 5 -609 -3 -740 -22 -334 -67 -617 -136 -852
-33 -110 -35 -127 -35 -263 0 -675 -98 -1538 -271 -2385 -75 -367 -113 -528
-177 -735 -109 -358 -152 -683 -122 -920 6 -41 12 -83 15 -95 7 -25 -13 -3
-187 205 -664 791 -1217 1757 -1569 2742 -247 690 -415 1434 -484 2143 -56
574 -59 1200 -9 1745 147 1614 709 3133 1645 4445 1052 1475 2516 2605 4199
3240 1130 426 2375 627 3570 575z m3307 -761 c1404 -618 2675 -1627 3598
-2855 1360 -1810 1989 -4017 1789 -6284 -67 -771 -243 -1564 -502 -2276 -133
-365 -240 -612 -423 -980 l-130 -261 -437 -6 c-741 -12 -1347 -47 -2032 -117
-365 -38 -958 -118 -1280 -173 -43 -7 -96 -10 -125 -6 -88 12 -337 9 -425 -5
-146 -24 -1042 -256 -1510 -391 -266 -77 -332 -97 -930 -289 -461 -148 -591
-182 -767 -200 -74 -7 -79 2 -63 117 15 113 44 210 207 692 135 399 194 547
269 680 25 44 72 150 104 235 164 439 358 926 706 1772 392 954 450 1104 494
1273 54 212 132 440 290 856 184 481 238 644 414 1251 178 613 272 952 350
1263 67 269 81 336 150 736 74 425 138 723 177 821 16 39 73 92 138 126 111
60 522 187 941 292 223 56 459 116 525 135 66 18 174 45 240 60 66 15 144 37
173 50 75 34 165 124 205 204 30 62 32 72 32 176 0 101 -2 115 -29 169 -62
126 -209 231 -389 276 -237 60 -609 48 -1132 -34 -88 -14 -232 -37 -319 -51
-88 -13 -207 -29 -265 -35 -304 -30 -753 -108 -991 -171 -248 -66 -1018 -315
-1348 -435 -599 -220 -1172 -506 -1412 -704 -195 -161 -250 -261 -250 -452 0
-147 54 -272 165 -383 127 -127 279 -183 520 -192 254 -9 403 33 831 235 208
98 493 215 623 256 46 15 116 29 156 33 70 5 72 5 78 -18 12 -44 7 -144 -13
-295 -19 -137 -20 -163 -9 -328 15 -225 9 -300 -35 -451 -19 -66 -67 -241
-106 -390 -132 -501 -151 -561 -277 -910 -206 -567 -380 -1082 -774 -2290
-177 -544 -225 -678 -391 -1095 -322 -807 -435 -1129 -473 -1355 -21 -123 -67
-265 -138 -421 -78 -172 -203 -448 -237 -524 -20 -44 -33 -95 -40 -156 -13
-115 -36 -182 -103 -297 -66 -112 -132 -273 -247 -602 -83 -238 -156 -431
-183 -484 -21 -43 -105 -128 -200 -203 -51 -40 -117 -93 -147 -119 -96 -81
-229 -163 -760 -472 -505 -294 -873 -548 -1170 -808 -91 -79 -201 -173 -245
-208 -44 -36 -87 -71 -96 -78 -14 -12 -27 0 -105 94 -176 213 -358 387 -564
541 -525 391 -1171 581 -1845 542 l-170 -10 -35 36 -35 35 45 -8 c90 -16 328
-7 440 16 359 75 633 361 845 884 31 76 108 292 171 480 133 396 195 557 266
694 27 54 115 267 193 473 596 1563 1087 2750 1578 3815 1073 2330 2194 4171
3476 5709 311 373 560 650 916 1018 127 131 271 282 320 336 162 174 284 291
770 737 264 242 554 513 645 602 91 89 168 162 172 163 3 0 68 -27 145 -61z
m4060 -13114 c-24 -62 -368 -556 -550 -789 -326 -418 -778 -898 -1167 -1240
-1387 -1218 -3081 -1979 -4895 -2200 -429 -52 -584 -60 -1115 -60 -387 0 -540
3 -700 17 -420 36 -844 97 -1197 172 -162 35 -521 123 -535 131 -23 14 577
483 962 754 1145 803 2364 1417 3855 1940 138 49 340 126 450 173 1202 508
2695 872 4360 1062 557 63 540 62 532 40z"/>
</g>
</svg>
